<?xml version="1.0" standalone="no"?>
<!DOCTYPE svg PUBLIC "-//W3C//DTD SVG 20010904//EN"
 "http://www.w3.org/TR/2001/REC-SVG-20010904/DTD/svg10.dtd">
<svg version="1.0" xmlns="http://www.w3.org/2000/svg"
 width="1280.000000pt" height="797.000000pt" viewBox="0 0 1280.000000 797.000000"
 preserveAspectRatio="xMidYMid meet">
<g transform="translate(0.000000,797.000000) scale(0.100000,-0.100000)"
fill="#000000" stroke="none">
<path d="M5652 6753 c-66 -95 -217 -355 -259 -448 -216 -467 -366 -1048 -425
-1639 -7 -71 -17 -134 -24 -140 -6 -6 -169 -47 -363 -90 -283 -64 -354 -77
-361 -66 -14 22 -22 165 -15 253 26 319 153 682 495 1422 122 264 234 525 227
531 -7 7 -58 -61 -126 -170 -34 -55 -106 -152 -159 -215 -220 -263 -385 -507
-536 -793 -100 -192 -141 -297 -210 -549 -75 -271 -105 -361 -152 -445 -65
-119 -140 -159 -286 -152 l-63 3 3 42 c1 23 33 167 71 320 138 554 174 760
175 993 1 133 -2 165 -21 226 -46 145 -108 192 -294 220 -123 19 -356 14 -487
-10 -359 -66 -664 -215 -884 -431 -152 -149 -255 -322 -304 -510 -23 -86 -27
-121 -27 -250 -1 -82 1 -197 4 -255 5 -121 0 -135 -105 -320 -107 -189 -156
-311 -156 -388 0 -27 10 -37 98 -92 137 -89 480 -333 603 -431 134 -107 251
-226 280 -286 45 -92 37 -222 -21 -363 -167 -405 -343 -584 -619 -629 -56 -9
-101 -21 -101 -27 0 -19 71 -128 108 -167 89 -92 251 -137 419 -117 163 20
291 61 563 180 265 117 260 116 609 130 414 17 494 48 495 192 1 68 -20 120
-105 263 -51 86 -138 277 -180 393 -73 208 -103 409 -79 534 22 121 65 156
149 122 101 -40 172 -172 300 -559 94 -285 153 -427 247 -597 188 -340 424
-618 824 -968 137 -119 134 -117 127 -99 -3 10 -115 192 -248 405 -133 214
-268 443 -300 509 -127 266 -225 595 -288 970 -26 157 -53 395 -49 437 l3 33
305 52 c382 66 419 63 460 -30 22 -49 27 -89 40 -287 15 -239 81 -570 167
-835 180 -557 441 -1030 756 -1370 36 -38 67 -68 70 -65 3 3 -53 131 -125 285
-360 778 -416 952 -479 1470 -83 689 -98 840 -85 853 38 39 264 67 476 59 181
-7 250 -22 267 -58 6 -13 39 -195 73 -404 139 -856 200 -1044 445 -1370 94
-126 407 -455 413 -435 4 10 -38 89 -157 294 -165 283 -286 692 -425 1431 -68
365 -85 505 -64 523 8 6 189 28 424 51 352 35 411 38 420 26 6 -8 18 -70 28
-137 33 -235 116 -641 154 -753 77 -231 235 -508 401 -707 75 -89 207 -216
215 -207 2 2 -36 87 -85 189 -335 702 -430 1010 -446 1452 l-6 167 34 5 c19 3
171 18 337 32 231 21 306 24 311 15 4 -6 15 -93 25 -194 10 -100 25 -216 33
-257 37 -190 158 -437 286 -587 52 -60 137 -136 144 -129 3 3 -44 108 -105
233 -166 342 -208 462 -219 621 -7 97 15 318 32 332 8 7 130 9 341 8 l329 -3
32 -122 c56 -214 133 -372 224 -463 27 -28 54 -50 59 -50 13 0 -11 62 -69 178
-93 186 -144 390 -112 450 13 25 67 42 131 42 47 0 259 -26 266 -33 2 -2 66
-141 143 -310 153 -338 188 -402 296 -545 298 -394 722 -641 1187 -691 102
-11 198 -14 198 -6 0 2 -161 165 -359 362 -324 324 -482 496 -613 668 -167
220 -278 454 -278 584 0 48 44 131 176 331 238 361 442 542 1012 900 72 45
132 88 132 95 0 26 -71 75 -143 97 -64 20 -92 23 -252 23 -170 -1 -184 -2
-245 -26 -223 -89 -403 -211 -593 -404 -168 -169 -295 -340 -447 -598 -106
-180 -97 -173 -191 -139 -73 28 -165 42 -266 42 -92 0 -113 5 -113 29 0 9 27
117 60 240 33 124 58 226 57 228 -9 8 -59 -60 -90 -122 -36 -73 -87 -222 -87
-255 0 -11 -12 -27 -26 -37 -24 -16 -32 -16 -132 0 -59 9 -215 28 -347 43
-132 14 -246 31 -254 37 -36 31 25 331 145 714 14 44 -79 -76 -120 -156 -73
-141 -123 -309 -141 -474 l-6 -57 -367 2 -367 3 3 75 c5 120 51 578 67 665 12
62 121 428 185 618 16 49 -6 28 -48 -46 -163 -284 -353 -865 -393 -1202 -7
-55 -16 -104 -21 -110 -8 -9 -922 -46 -945 -37 -7 2 -13 10 -13 17 0 7 83 425
185 930 102 504 185 922 185 928 0 15 -13 -7 -149 -243 -170 -297 -202 -387
-281 -800 -23 -118 -65 -312 -95 -430 -29 -118 -59 -253 -65 -300 -7 -47 -15
-88 -19 -92 -11 -13 -814 -37 -828 -26 -21 17 -15 168 12 343 14 88 48 317 76
509 83 581 122 765 239 1121 70 214 91 285 85 285 -2 0 -12 -12 -23 -27z"/>
</g>
</svg>
